<svg width="512" height="512" viewBox="0 0 512 512" fill="none" xmlns="http://www.w3.org/2000/svg">
<g clip-path="url(#clip0_1_2)">
<path d="M222.5 19.3412C243.23 7.37284 268.77 7.37284 289.5 19.3412L444.203 108.659C464.932 120.627 477.703 142.746 477.703 166.682V345.318C477.703 369.254 464.932 391.373 444.203 403.341L289.5 492.659C268.77 504.627 243.23 504.627 222.5 492.659L67.7975 403.341C47.0676 391.373 34.2975 369.254 34.2975 345.318V166.682C34.2975 142.746 47.0676 120.627 67.7975 108.659L222.5 19.3412Z" fill="#FFBF00"/>
<path d="M101.32 128H151.32L226.32 256H176.32L101.32 128Z" fill="#231200"/>
<path d="M101 384H151L226 256H176L101 384Z" fill="#231200"/>
<rect x="212" y="384" width="43" height="200" transform="rotate(-90 212 384)" fill="#231200"/>
</g>
<defs>
<clipPath id="clip0_1_2">
<rect width="512" height="512" rx="256" fill="white"/>
</clipPath>
</defs>
</svg>
