<svg width="1280" height="640" viewBox="0 0 1280 640" fill="none" xmlns="http://www.w3.org/2000/svg">
<g clip-path="url(#clip0_24_2)">
<rect width="1280" height="640" fill="white"/>
<rect width="1280" height="640" fill="url(#paint0_linear_24_2)"/>
<mask id="mask0_24_2" style="mask-type:luminance" maskUnits="userSpaceOnUse" x="96" y="271" width="266" height="266">
<path d="M362 404C362 330.546 302.454 271 229 271C155.546 271 96 330.546 96 404C96 477.454 155.546 537 229 537C302.454 537 362 477.454 362 404Z" fill="white"/>
</mask>
<g mask="url(#mask0_24_2)">
<path d="M211.596 281.048C222.366 274.83 235.634 274.83 246.404 281.048L326.777 327.452C337.547 333.669 344.182 345.161 344.182 357.597V450.403C344.182 462.839 337.547 474.331 326.777 480.548L246.404 526.952C235.634 533.169 222.366 533.169 211.596 526.952L131.223 480.548C120.453 474.331 113.819 462.839 113.819 450.403V357.597C113.819 345.161 120.453 333.669 131.223 327.452L211.596 281.048Z" fill="#FFBF00"/>
<path d="M148.639 337.5H174.615L213.58 404H187.604L148.639 337.5Z" fill="#231200"/>
<path d="M148.473 470.5H174.449L213.414 404H187.438L148.473 470.5Z" fill="#231200"/>
<path d="M206.141 448.16V470.5H310.047V448.16H206.141Z" fill="#231200"/>
</g>
<path d="M340.472 235.28C332.707 235.28 326.051 233.915 320.504 231.184C314.957 228.453 310.733 224.528 307.832 219.408C304.931 214.203 303.48 207.973 303.48 200.72C303.48 193.381 304.931 187.152 307.832 182.032C310.733 176.912 314.957 172.987 320.504 170.256C326.051 167.525 332.707 166.16 340.472 166.16C344.397 166.16 348.067 166.544 351.48 167.312C354.893 168.08 358.221 169.317 361.464 171.024L358.648 184.464C355.661 182.843 352.76 181.691 349.944 181.008C347.213 180.24 344.483 179.856 341.752 179.856C335.267 179.856 330.232 181.648 326.648 185.232C323.149 188.816 321.4 193.979 321.4 200.72C321.4 207.376 323.149 212.539 326.648 216.208C330.232 219.792 335.267 221.584 341.752 221.584C344.483 221.584 347.213 221.243 349.944 220.56C352.76 219.792 355.661 218.597 358.648 216.976L361.464 230.416C358.221 232.123 354.893 233.36 351.48 234.128C348.067 234.896 344.397 235.28 340.472 235.28ZM378.353 234V140.56H396.273V234H378.353ZM415.353 156.816V140.56H433.273V156.816H415.353ZM415.353 234V168.336H433.273V234H415.353ZM450.165 204.816V188.944H491.637V204.816H450.165ZM507.457 234V140.56H525.121V194.064H525.377L550.593 167.44H572.097L540.225 199.44L573.249 234H551.745L525.377 204.816H525.121V234H507.457ZM585.353 156.816V140.56H603.273V156.816H585.353ZM585.353 234V168.336H603.273V234H585.353ZM621.957 234V167.44H638.725L638.853 175.248H639.109C641.84 172.176 644.997 169.915 648.581 168.464C652.25 166.928 656.474 166.16 661.253 166.16C669.274 166.16 675.162 168.336 678.917 172.688C682.757 176.955 684.677 183.739 684.677 193.04V234H667.141V196.496C667.141 190.949 666.202 186.939 664.325 184.464C662.448 181.904 659.461 180.624 655.365 180.624C652.293 180.624 649.562 181.264 647.173 182.544C644.784 183.739 642.906 185.403 641.541 187.536C640.261 189.584 639.621 192.016 639.621 194.832V234H621.957ZM729.043 235.28C721.022 235.28 715.219 233.659 711.635 230.416C708.136 227.173 706.387 221.84 706.387 214.416V181.136H691.923V167.44H706.387V145.68H724.051V167.44H745.683V181.136H724.051V210.064C724.051 214.075 724.691 216.891 725.971 218.512C727.251 220.048 729.555 220.816 732.883 220.816C734.675 220.816 736.552 220.645 738.515 220.304C740.563 219.963 742.44 219.493 744.147 218.896L745.555 232.848C742.654 233.701 739.88 234.299 737.235 234.64C734.59 235.067 731.859 235.28 729.043 235.28ZM788.906 235.28C777.983 235.28 769.535 232.293 763.562 226.32C757.674 220.347 754.73 211.813 754.73 200.72C754.73 189.627 757.674 181.093 763.562 175.12C769.535 169.147 777.983 166.16 788.906 166.16C799.829 166.16 808.234 169.147 814.122 175.12C820.01 181.093 822.954 189.627 822.954 200.72C822.954 211.813 820.01 220.347 814.122 226.32C808.234 232.293 799.829 235.28 788.906 235.28ZM788.906 221.584C794.367 221.584 798.463 219.835 801.194 216.336C804.01 212.837 805.418 207.632 805.418 200.72C805.418 193.808 804.01 188.603 801.194 185.104C798.463 181.605 794.367 179.856 788.906 179.856C783.53 179.856 779.391 181.605 776.49 185.104C773.674 188.603 772.266 193.808 772.266 200.72C772.266 207.632 773.674 212.837 776.49 216.336C779.391 219.835 783.53 221.584 788.906 221.584ZM836.207 234V167.44H852.975L853.103 175.248H853.359C856.09 172.176 859.247 169.915 862.831 168.464C866.5 166.928 870.724 166.16 875.503 166.16C883.524 166.16 889.412 168.336 893.167 172.688C897.007 176.955 898.927 183.739 898.927 193.04V234H881.391V196.496C881.391 190.949 880.452 186.939 878.575 184.464C876.698 181.904 873.711 180.624 869.615 180.624C866.543 180.624 863.812 181.264 861.423 182.544C859.034 183.739 857.156 185.403 855.791 187.536C854.511 189.584 853.871 192.016 853.871 194.832V234H836.207ZM947.853 235.28C935.906 235.28 926.69 232.293 920.205 226.32C913.805 220.347 910.605 211.813 910.605 200.72C910.605 189.968 913.549 181.52 919.437 175.376C925.325 169.232 933.432 166.16 943.757 166.16C953.741 166.16 961.421 169.061 966.797 174.864C972.258 180.667 974.989 188.901 974.989 199.568C974.989 200.763 974.946 202.128 974.861 203.664C974.861 205.2 974.818 206.352 974.733 207.12H920.461V194.96H961.037L958.605 198.672C958.605 192.016 957.368 187.067 954.893 183.824C952.504 180.581 948.792 178.96 943.757 178.96C938.466 178.96 934.498 180.667 931.853 184.08C929.208 187.408 927.885 192.4 927.885 199.056V204.176C927.885 210.149 929.464 214.544 932.621 217.36C935.778 220.176 940.6 221.584 947.085 221.584C950.754 221.584 954.637 221.243 958.733 220.56C962.829 219.877 966.456 218.939 969.613 217.744L971.661 231.184C968.504 232.464 964.792 233.445 960.525 234.128C956.344 234.896 952.12 235.28 947.853 235.28Z" fill="black"/>
<path d="M429.768 385V346.152H414.792V338.28H454.024V346.152H439.048V385H429.768ZM460.229 385V338.28H469.061V355.624H469.189C470.554 354.088 472.09 352.957 473.797 352.232C475.546 351.464 477.573 351.08 479.877 351.08C483.973 351.08 486.959 352.168 488.837 354.344C490.714 356.477 491.631 359.869 491.589 364.52V385H482.821V366.248C482.863 363.475 482.394 361.469 481.413 360.232C480.474 358.952 478.981 358.312 476.933 358.312C475.397 358.312 474.031 358.632 472.837 359.272C471.685 359.869 470.767 360.701 470.085 361.768C469.402 362.835 469.061 364.051 469.061 365.416V385H460.229ZM516.052 385.64C510.078 385.64 505.47 384.147 502.228 381.16C499.028 378.173 497.428 373.907 497.428 368.36C497.428 362.984 498.9 358.76 501.844 355.688C504.788 352.616 508.841 351.08 514.003 351.08C518.996 351.08 522.836 352.531 525.524 355.432C528.254 358.333 529.62 362.451 529.62 367.784C529.62 368.381 529.598 369.064 529.556 369.832C529.556 370.6 529.534 371.176 529.492 371.56H502.356V365.48H522.644L521.428 367.336C521.428 364.008 520.809 361.533 519.572 359.912C518.377 358.291 516.521 357.48 514.003 357.48C511.358 357.48 509.374 358.333 508.052 360.04C506.729 361.704 506.068 364.2 506.068 367.528V370.088C506.068 373.075 506.857 375.272 508.436 376.68C510.014 378.088 512.425 378.792 515.668 378.792C517.502 378.792 519.444 378.621 521.492 378.28C523.54 377.939 525.353 377.469 526.932 376.872L527.956 383.592C526.377 384.232 524.521 384.723 522.388 385.064C520.297 385.448 518.185 385.64 516.052 385.64ZM576.321 385.64C571.201 385.64 566.806 384.701 563.137 382.824C559.467 380.904 556.651 378.152 554.689 374.568C552.769 370.984 551.809 366.675 551.809 361.64C551.809 356.605 552.769 352.296 554.689 348.712C556.651 345.128 559.467 342.397 563.137 340.52C566.806 338.6 571.201 337.64 576.321 337.64C582.166 337.64 587.35 338.899 591.873 341.416L589.825 349.224C585.43 346.749 581.057 345.512 576.705 345.512C573.462 345.512 570.667 346.152 568.321 347.432C565.974 348.712 564.182 350.568 562.945 353C561.707 355.389 561.089 358.269 561.089 361.64C561.089 364.968 561.707 367.848 562.945 370.28C564.182 372.712 565.974 374.568 568.321 375.848C570.667 377.128 573.462 377.768 576.705 377.768C580.971 377.768 585.345 376.531 589.825 374.056L591.873 381.864C587.35 384.381 582.166 385.64 576.321 385.64ZM612.453 385.64C606.992 385.64 602.768 384.147 599.781 381.16C596.837 378.173 595.365 373.907 595.365 368.36C595.365 362.813 596.837 358.547 599.781 355.56C602.768 352.573 606.992 351.08 612.453 351.08C617.914 351.08 622.117 352.573 625.061 355.56C628.005 358.547 629.477 362.813 629.477 368.36C629.477 373.907 628.005 378.173 625.061 381.16C622.117 384.147 617.914 385.64 612.453 385.64ZM612.453 378.792C615.184 378.792 617.232 377.917 618.597 376.168C620.005 374.419 620.709 371.816 620.709 368.36C620.709 364.904 620.005 362.301 618.597 360.552C617.232 358.803 615.184 357.928 612.453 357.928C609.765 357.928 607.696 358.803 606.245 360.552C604.837 362.301 604.133 364.904 604.133 368.36C604.133 371.816 604.837 374.419 606.245 376.168C607.696 377.917 609.765 378.792 612.453 378.792ZM636.104 385V351.72H644.296L644.424 355.624H644.552C645.789 354.131 647.197 353 648.776 352.232C650.397 351.464 652.296 351.08 654.472 351.08C656.605 351.08 658.418 351.464 659.912 352.232C661.405 353 662.472 354.131 663.112 355.624H663.24C664.562 354.045 666.056 352.893 667.72 352.168C669.384 351.443 671.325 351.08 673.544 351.08C677.085 351.08 679.645 352.019 681.224 353.896C682.845 355.773 683.656 358.739 683.656 362.792V385H675.08V364.968C675.08 362.664 674.717 360.979 673.992 359.912C673.266 358.845 672.093 358.312 670.472 358.312C668.552 358.312 667.037 358.973 665.928 360.296C664.818 361.576 664.264 363.283 664.264 365.416V385H655.624V364.52C655.624 362.472 655.218 360.936 654.408 359.912C653.64 358.845 652.488 358.312 650.952 358.312C649.8 358.312 648.754 358.632 647.816 359.272C646.877 359.869 646.13 360.701 645.576 361.768C645.021 362.835 644.744 364.051 644.744 365.416V385H636.104ZM691.666 385V351.72H699.858L699.986 355.624H700.114C701.351 354.131 702.759 353 704.338 352.232C705.959 351.464 707.858 351.08 710.034 351.08C712.167 351.08 713.981 351.464 715.474 352.232C716.967 353 718.034 354.131 718.674 355.624H718.802C720.125 354.045 721.618 352.893 723.282 352.168C724.946 351.443 726.887 351.08 729.106 351.08C732.647 351.08 735.207 352.019 736.786 353.896C738.407 355.773 739.218 358.739 739.218 362.792V385H730.642V364.968C730.642 362.664 730.279 360.979 729.554 359.912C728.829 358.845 727.655 358.312 726.034 358.312C724.114 358.312 722.599 358.973 721.49 360.296C720.381 361.576 719.826 363.283 719.826 365.416V385H711.186V364.52C711.186 362.472 710.781 360.936 709.97 359.912C709.202 358.845 708.05 358.312 706.514 358.312C705.362 358.312 704.317 358.632 703.378 359.272C702.439 359.869 701.693 360.701 701.138 361.768C700.583 362.835 700.306 364.051 700.306 365.416V385H691.666ZM755.229 385.64C751.943 385.64 749.341 384.723 747.421 382.888C745.543 381.053 744.605 378.6 744.605 375.528C744.605 371.688 746.098 368.723 749.085 366.632C752.114 364.541 756.402 363.496 761.949 363.496H766.365C766.365 362.003 766.173 360.851 765.789 360.04C765.447 359.229 764.829 358.675 763.933 358.376C763.079 358.035 761.842 357.864 760.221 357.864C758.087 357.864 755.869 358.099 753.565 358.568C751.261 358.995 749.085 359.613 747.036 360.424L745.949 353.64C748.167 352.829 750.621 352.211 753.309 351.784C756.039 351.315 758.749 351.08 761.437 351.08C764.85 351.08 767.538 351.485 769.501 352.296C771.463 353.107 772.893 354.472 773.789 356.392C774.685 358.269 775.132 360.808 775.132 364.008V385H766.749L766.621 381.16H766.557C765.362 382.525 763.719 383.613 761.628 384.424C759.538 385.235 757.405 385.64 755.229 385.64ZM758.429 378.984C759.922 378.984 761.266 378.728 762.461 378.216C763.655 377.704 764.594 377 765.277 376.104C766.002 375.165 766.365 374.141 766.365 373.032V369.256H763.229C759.773 369.256 757.191 369.704 755.485 370.6C753.778 371.453 752.925 372.797 752.925 374.632C752.925 375.997 753.394 377.064 754.333 377.832C755.314 378.6 756.679 378.984 758.429 378.984ZM783.104 385V351.72H791.488L791.552 355.624H791.68C793.045 354.088 794.624 352.957 796.416 352.232C798.25 351.464 800.362 351.08 802.752 351.08C806.762 351.08 809.706 352.168 811.583 354.344C813.504 356.477 814.464 359.869 814.464 364.52V385H805.696V366.248C805.696 363.475 805.226 361.469 804.288 360.232C803.349 358.952 801.856 358.312 799.808 358.312C798.272 358.312 796.906 358.632 795.712 359.272C794.517 359.869 793.578 360.701 792.896 361.768C792.256 362.792 791.936 364.008 791.936 365.416V385H783.104ZM834.255 385.64C829.817 385.64 826.383 384.125 823.951 381.096C821.519 378.067 820.303 373.821 820.303 368.36C820.303 362.899 821.519 358.653 823.951 355.624C826.383 352.595 829.817 351.08 834.255 351.08C836.431 351.08 838.372 351.464 840.079 352.232C841.828 352.957 843.364 354.088 844.687 355.624H844.815V338.28H853.583V385H845.263L845.135 381.096H845.007C843.684 382.589 842.105 383.72 840.271 384.488C838.436 385.256 836.431 385.64 834.255 385.64ZM836.815 378.6C838.351 378.6 839.716 378.28 840.911 377.64C842.105 377 843.044 376.147 843.727 375.08C844.452 373.971 844.815 372.712 844.815 371.304V365.416C844.815 364.008 844.452 362.771 843.727 361.704C843.044 360.595 842.105 359.72 840.911 359.08C839.716 358.44 838.351 358.12 836.815 358.12C834.297 358.12 832.356 359.016 830.991 360.808C829.625 362.557 828.943 365.075 828.943 368.36C828.943 371.645 829.625 374.184 830.991 375.976C832.356 377.725 834.297 378.6 836.815 378.6ZM880.491 385V338.28H889.643V377.128H913.963V385H880.491ZM920.927 346.408V338.28H929.887V346.408H920.927ZM920.927 385V352.168H929.887V385H920.927ZM939.229 385V351.72H947.613L947.677 355.624H947.805C949.17 354.088 950.749 352.957 952.541 352.232C954.375 351.464 956.487 351.08 958.877 351.08C962.887 351.08 965.831 352.168 967.708 354.344C969.629 356.477 970.589 359.869 970.589 364.52V385H961.821V366.248C961.821 363.475 961.351 361.469 960.413 360.232C959.474 358.952 957.981 358.312 955.933 358.312C954.397 358.312 953.031 358.632 951.837 359.272C950.642 359.869 949.703 360.701 949.021 361.768C948.381 362.792 948.061 364.008 948.061 365.416V385H939.229ZM995.052 385.64C989.078 385.64 984.47 384.147 981.228 381.16C978.028 378.173 976.428 373.907 976.428 368.36C976.428 362.984 977.9 358.76 980.844 355.688C983.788 352.616 987.841 351.08 993.003 351.08C997.996 351.08 1001.84 352.531 1004.52 355.432C1007.25 358.333 1008.62 362.451 1008.62 367.784C1008.62 368.381 1008.6 369.064 1008.56 369.832C1008.56 370.6 1008.53 371.176 1008.49 371.56H981.356V365.48H1001.64L1000.43 367.336C1000.43 364.008 999.809 361.533 998.572 359.912C997.377 358.291 995.521 357.48 993.003 357.48C990.358 357.48 988.374 358.333 987.052 360.04C985.729 361.704 985.068 364.2 985.068 367.528V370.088C985.068 373.075 985.857 375.272 987.436 376.68C989.014 378.088 991.425 378.792 994.668 378.792C996.502 378.792 998.444 378.621 1000.49 378.28C1002.54 377.939 1004.35 377.469 1005.93 376.872L1006.96 383.592C1005.38 384.232 1003.52 384.723 1001.39 385.064C999.297 385.448 997.185 385.64 995.052 385.64ZM1047.9 385.64C1043.89 385.64 1040.98 384.829 1039.19 383.208C1037.44 381.587 1036.57 378.92 1036.57 375.208V358.568H1029.34V351.72H1036.57V340.84H1045.4V351.72H1056.22V358.568H1045.4V373.032C1045.4 375.037 1045.72 376.445 1046.36 377.256C1047 378.024 1048.15 378.408 1049.82 378.408C1050.71 378.408 1051.65 378.323 1052.63 378.152C1053.66 377.981 1054.6 377.747 1055.45 377.448L1056.15 384.424C1054.7 384.851 1053.32 385.149 1051.99 385.32C1050.67 385.533 1049.3 385.64 1047.9 385.64ZM1077.83 385.64C1072.37 385.64 1068.14 384.147 1065.16 381.16C1062.21 378.173 1060.74 373.907 1060.74 368.36C1060.74 362.813 1062.21 358.547 1065.16 355.56C1068.14 352.573 1072.37 351.08 1077.83 351.08C1083.29 351.08 1087.49 352.573 1090.44 355.56C1093.38 358.547 1094.85 362.813 1094.85 368.36C1094.85 373.907 1093.38 378.173 1090.44 381.16C1087.49 384.147 1083.29 385.64 1077.83 385.64ZM1077.83 378.792C1080.56 378.792 1082.61 377.917 1083.97 376.168C1085.38 374.419 1086.08 371.816 1086.08 368.36C1086.08 364.904 1085.38 362.301 1083.97 360.552C1082.61 358.803 1080.56 357.928 1077.83 357.928C1075.14 357.928 1073.07 358.803 1071.62 360.552C1070.21 362.301 1069.51 364.904 1069.51 368.36C1069.51 371.816 1070.21 374.419 1071.62 376.168C1073.07 377.917 1075.14 378.792 1077.83 378.792ZM1116.7 385.64C1111.24 385.64 1107.02 384.147 1104.03 381.16C1101.09 378.173 1099.62 373.907 1099.62 368.36C1099.62 362.813 1101.09 358.547 1104.03 355.56C1107.02 352.573 1111.24 351.08 1116.7 351.08C1122.16 351.08 1126.37 352.573 1129.31 355.56C1132.26 358.547 1133.73 362.813 1133.73 368.36C1133.73 373.907 1132.26 378.173 1129.31 381.16C1126.37 384.147 1122.16 385.64 1116.7 385.64ZM1116.7 378.792C1119.43 378.792 1121.48 377.917 1122.85 376.168C1124.26 374.419 1124.96 371.816 1124.96 368.36C1124.96 364.904 1124.26 362.301 1122.85 360.552C1121.48 358.803 1119.43 357.928 1116.7 357.928C1114.02 357.928 1111.95 358.803 1110.5 360.552C1109.09 362.301 1108.38 364.904 1108.38 368.36C1108.38 371.816 1109.09 374.419 1110.5 376.168C1111.95 377.917 1114.02 378.792 1116.7 378.792ZM1140.8 385V338.28H1149.76V385H1140.8ZM432.584 478.64C428.573 478.64 425.672 477.829 423.88 476.208C422.131 474.587 421.256 471.92 421.256 468.208V451.568H414.024V444.72H421.256V433.84H430.088V444.72H440.904V451.568H430.088V466.032C430.088 468.037 430.408 469.445 431.048 470.256C431.688 471.024 432.84 471.408 434.504 471.408C435.4 471.408 436.339 471.323 437.32 471.152C438.344 470.981 439.283 470.747 440.136 470.448L440.84 477.424C439.389 477.851 438.003 478.149 436.68 478.32C435.357 478.533 433.992 478.64 432.584 478.64ZM462.516 478.64C457.054 478.64 452.83 477.147 449.844 474.16C446.9 471.173 445.428 466.907 445.428 461.36C445.428 455.813 446.9 451.547 449.844 448.56C452.83 445.573 457.054 444.08 462.516 444.08C467.977 444.08 472.18 445.573 475.124 448.56C478.068 451.547 479.54 455.813 479.54 461.36C479.54 466.907 478.068 471.173 475.124 474.16C472.18 477.147 467.977 478.64 462.516 478.64ZM462.516 471.792C465.246 471.792 467.294 470.917 468.66 469.168C470.068 467.419 470.772 464.816 470.772 461.36C470.772 457.904 470.068 455.301 468.66 453.552C467.294 451.803 465.246 450.928 462.516 450.928C459.828 450.928 457.758 451.803 456.308 453.552C454.9 455.301 454.196 457.904 454.196 461.36C454.196 464.816 454.9 467.419 456.308 469.168C457.758 470.917 459.828 471.792 462.516 471.792ZM511.666 478.64C508.381 478.64 505.778 477.723 503.858 475.888C501.981 474.053 501.042 471.6 501.042 468.528C501.042 464.688 502.535 461.723 505.522 459.632C508.551 457.541 512.839 456.496 518.386 456.496H522.802C522.802 455.003 522.61 453.851 522.226 453.04C521.885 452.229 521.266 451.675 520.37 451.376C519.517 451.035 518.279 450.864 516.658 450.864C514.525 450.864 512.306 451.099 510.002 451.568C507.698 451.995 505.522 452.613 503.474 453.424L502.386 446.64C504.605 445.829 507.058 445.211 509.746 444.784C512.477 444.315 515.186 444.08 517.874 444.08C521.287 444.08 523.975 444.485 525.938 445.296C527.901 446.107 529.33 447.472 530.226 449.392C531.122 451.269 531.57 453.808 531.57 457.008V478H523.186L523.058 474.16H522.994C521.799 475.525 520.157 476.613 518.066 477.424C515.975 478.235 513.842 478.64 511.666 478.64ZM514.866 471.984C516.359 471.984 517.703 471.728 518.898 471.216C520.093 470.704 521.031 470 521.714 469.104C522.439 468.165 522.802 467.141 522.802 466.032V462.256H519.666C516.21 462.256 513.629 462.704 511.922 463.6C510.215 464.453 509.362 465.797 509.362 467.632C509.362 468.997 509.831 470.064 510.77 470.832C511.751 471.6 513.117 471.984 514.866 471.984ZM555.861 478.64C551.978 478.64 548.65 477.957 545.877 476.592C543.104 475.227 540.992 473.264 539.541 470.704C538.09 468.101 537.365 464.987 537.365 461.36C537.365 457.691 538.09 454.576 539.541 452.016C540.992 449.456 543.104 447.493 545.877 446.128C548.65 444.763 551.978 444.08 555.861 444.08C557.824 444.08 559.658 444.272 561.365 444.656C563.072 445.04 564.736 445.659 566.357 446.512L564.949 453.232C563.456 452.421 562.005 451.845 560.597 451.504C559.232 451.12 557.866 450.928 556.501 450.928C553.258 450.928 550.741 451.824 548.949 453.616C547.2 455.408 546.325 457.989 546.325 461.36C546.325 464.688 547.2 467.269 548.949 469.104C550.741 470.896 553.258 471.792 556.501 471.792C557.866 471.792 559.232 471.621 560.597 471.28C562.005 470.896 563.456 470.299 564.949 469.488L566.357 476.208C564.736 477.061 563.072 477.68 561.365 478.064C559.658 478.448 557.824 478.64 555.861 478.64ZM590.049 478.64C586.166 478.64 582.838 477.957 580.065 476.592C577.291 475.227 575.179 473.264 573.729 470.704C572.278 468.101 571.553 464.987 571.553 461.36C571.553 457.691 572.278 454.576 573.729 452.016C575.179 449.456 577.291 447.493 580.065 446.128C582.838 444.763 586.166 444.08 590.049 444.08C592.011 444.08 593.846 444.272 595.553 444.656C597.259 445.04 598.923 445.659 600.545 446.512L599.137 453.232C597.643 452.421 596.193 451.845 594.785 451.504C593.419 451.12 592.054 450.928 590.689 450.928C587.446 450.928 584.929 451.824 583.137 453.616C581.387 455.408 580.513 457.989 580.513 461.36C580.513 464.688 581.387 467.269 583.137 469.104C584.929 470.896 587.446 471.792 590.689 471.792C592.054 471.792 593.419 471.621 594.785 471.28C596.193 470.896 597.643 470.299 599.137 469.488L600.545 476.208C598.923 477.061 597.259 477.68 595.553 478.064C593.846 478.448 592.011 478.64 590.049 478.64ZM624.364 478.64C618.391 478.64 613.783 477.147 610.54 474.16C607.34 471.173 605.74 466.907 605.74 461.36C605.74 455.984 607.212 451.76 610.156 448.688C613.1 445.616 617.153 444.08 622.316 444.08C627.308 444.08 631.148 445.531 633.836 448.432C636.567 451.333 637.932 455.451 637.932 460.784C637.932 461.381 637.911 462.064 637.868 462.832C637.868 463.6 637.847 464.176 637.804 464.56H610.668V458.48H630.956L629.74 460.336C629.74 457.008 629.121 454.533 627.884 452.912C626.689 451.291 624.833 450.48 622.316 450.48C619.671 450.48 617.687 451.333 616.364 453.04C615.041 454.704 614.38 457.2 614.38 460.528V463.088C614.38 466.075 615.169 468.272 616.748 469.68C618.327 471.088 620.737 471.792 623.98 471.792C625.815 471.792 627.756 471.621 629.804 471.28C631.852 470.939 633.665 470.469 635.244 469.872L636.268 476.592C634.689 477.232 632.833 477.723 630.7 478.064C628.609 478.448 626.497 478.64 624.364 478.64ZM656.189 478.64C654.696 478.64 653.096 478.533 651.389 478.32C649.725 478.149 648.125 477.893 646.589 477.552C645.053 477.168 643.709 476.741 642.557 476.272L643.645 469.552C645.693 470.277 647.656 470.832 649.533 471.216C651.453 471.6 653.352 471.792 655.229 471.792C657.362 471.792 658.92 471.515 659.901 470.96C660.882 470.405 661.373 469.552 661.373 468.4C661.373 467.717 661.202 467.163 660.861 466.736C660.52 466.309 659.901 465.925 659.005 465.584C658.152 465.2 656.936 464.837 655.357 464.496C652.626 463.813 650.28 463.024 648.317 462.128C646.397 461.189 644.925 460.037 643.901 458.672C642.877 457.307 642.365 455.643 642.365 453.68C642.365 450.523 643.56 448.133 645.949 446.512C648.338 444.891 651.816 444.08 656.381 444.08C658.472 444.08 660.626 444.251 662.845 444.592C665.106 444.933 667.218 445.424 669.181 446.064L668.093 452.784C666.216 452.144 664.402 451.675 662.653 451.376C660.904 451.077 659.197 450.928 657.533 450.928C655.4 450.928 653.821 451.184 652.797 451.696C651.773 452.165 651.261 452.912 651.261 453.936C651.261 454.533 651.432 455.045 651.773 455.472C652.114 455.899 652.712 456.283 653.565 456.624C654.418 456.965 655.613 457.307 657.149 457.648C659.154 458.117 660.968 458.672 662.589 459.312C664.21 459.952 665.597 460.72 666.749 461.616C667.901 462.469 668.776 463.472 669.373 464.624C670.013 465.776 670.333 467.099 670.333 468.592C670.333 470.64 669.757 472.432 668.605 473.968C667.453 475.461 665.81 476.613 663.677 477.424C661.586 478.235 659.09 478.64 656.189 478.64ZM688.189 478.64C686.696 478.64 685.096 478.533 683.389 478.32C681.725 478.149 680.125 477.893 678.589 477.552C677.053 477.168 675.709 476.741 674.557 476.272L675.645 469.552C677.693 470.277 679.656 470.832 681.533 471.216C683.453 471.6 685.352 471.792 687.229 471.792C689.362 471.792 690.92 471.515 691.901 470.96C692.882 470.405 693.373 469.552 693.373 468.4C693.373 467.717 693.202 467.163 692.861 466.736C692.52 466.309 691.901 465.925 691.005 465.584C690.152 465.2 688.936 464.837 687.357 464.496C684.626 463.813 682.28 463.024 680.317 462.128C678.397 461.189 676.925 460.037 675.901 458.672C674.877 457.307 674.365 455.643 674.365 453.68C674.365 450.523 675.56 448.133 677.949 446.512C680.338 444.891 683.816 444.08 688.381 444.08C690.472 444.08 692.626 444.251 694.845 444.592C697.106 444.933 699.218 445.424 701.181 446.064L700.093 452.784C698.216 452.144 696.402 451.675 694.653 451.376C692.904 451.077 691.197 450.928 689.533 450.928C687.4 450.928 685.821 451.184 684.797 451.696C683.773 452.165 683.261 452.912 683.261 453.936C683.261 454.533 683.432 455.045 683.773 455.472C684.114 455.899 684.712 456.283 685.565 456.624C686.418 456.965 687.613 457.307 689.149 457.648C691.154 458.117 692.968 458.672 694.589 459.312C696.21 459.952 697.597 460.72 698.749 461.616C699.901 462.469 700.776 463.472 701.373 464.624C702.013 465.776 702.333 467.099 702.333 468.592C702.333 470.64 701.757 472.432 700.605 473.968C699.453 475.461 697.81 476.613 695.677 477.424C693.586 478.235 691.09 478.64 688.189 478.64Z" fill="black"/>
<path d="M726.479 478V431.28H735.311V458.032H735.439L748.047 444.72H758.799L742.863 460.72L759.375 478H748.623L735.439 463.408H735.311V478H726.479ZM765.427 439.408V431.28H774.387V439.408H765.427ZM765.427 478V445.168H774.387V478H765.427ZM783.729 478V444.72H792.113L792.177 448.624H792.305C793.67 447.088 795.249 445.957 797.041 445.232C798.875 444.464 800.987 444.08 803.377 444.08C807.387 444.08 810.331 445.168 812.208 447.344C814.129 449.477 815.089 452.869 815.089 457.52V478H806.321V459.248C806.321 456.475 805.851 454.469 804.913 453.232C803.974 451.952 802.481 451.312 800.433 451.312C798.897 451.312 797.531 451.632 796.337 452.272C795.142 452.869 794.203 453.701 793.521 454.768C792.881 455.792 792.561 457.008 792.561 458.416V478H783.729ZM837.272 478.64C833.261 478.64 830.36 477.829 828.568 476.208C826.818 474.587 825.944 471.92 825.944 468.208V451.568H818.712V444.72H825.944V433.84H834.776V444.72H845.592V451.568H834.776V466.032C834.776 468.037 835.096 469.445 835.736 470.256C836.376 471.024 837.528 471.408 839.192 471.408C840.088 471.408 841.026 471.323 842.008 471.152C843.032 470.981 843.97 470.747 844.824 470.448L845.528 477.424C844.077 477.851 842.69 478.149 841.368 478.32C840.045 478.533 838.68 478.64 837.272 478.64ZM867.203 478.64C861.742 478.64 857.518 477.147 854.531 474.16C851.587 471.173 850.115 466.907 850.115 461.36C850.115 455.813 851.587 451.547 854.531 448.56C857.518 445.573 861.742 444.08 867.203 444.08C872.664 444.08 876.867 445.573 879.811 448.56C882.755 451.547 884.227 455.813 884.227 461.36C884.227 466.907 882.755 471.173 879.811 474.16C876.867 477.147 872.664 478.64 867.203 478.64ZM867.203 471.792C869.934 471.792 871.982 470.917 873.347 469.168C874.755 467.419 875.459 464.816 875.459 461.36C875.459 457.904 874.755 455.301 873.347 453.552C871.982 451.803 869.934 450.928 867.203 450.928C864.515 450.928 862.446 451.803 860.995 453.552C859.587 455.301 858.883 457.904 858.883 461.36C858.883 464.816 859.587 467.419 860.995 469.168C862.446 470.917 864.515 471.792 867.203 471.792ZM890.854 478V444.72H899.238L899.302 448.624H899.43C900.795 447.088 902.374 445.957 904.166 445.232C906 444.464 908.112 444.08 910.502 444.08C914.512 444.08 917.456 445.168 919.333 447.344C921.254 449.477 922.214 452.869 922.214 457.52V478H913.446V459.248C913.446 456.475 912.976 454.469 912.038 453.232C911.099 451.952 909.606 451.312 907.558 451.312C906.022 451.312 904.656 451.632 903.462 452.272C902.267 452.869 901.328 453.701 900.646 454.768C900.006 455.792 899.686 457.008 899.686 458.416V478H890.854ZM946.677 478.64C940.703 478.64 936.095 477.147 932.853 474.16C929.653 471.173 928.053 466.907 928.053 461.36C928.053 455.984 929.525 451.76 932.469 448.688C935.413 445.616 939.466 444.08 944.628 444.08C949.621 444.08 953.461 445.531 956.149 448.432C958.879 451.333 960.245 455.451 960.245 460.784C960.245 461.381 960.223 462.064 960.181 462.832C960.181 463.6 960.159 464.176 960.117 464.56H932.981V458.48H953.269L952.053 460.336C952.053 457.008 951.434 454.533 950.197 452.912C949.002 451.291 947.146 450.48 944.628 450.48C941.983 450.48 939.999 451.333 938.677 453.04C937.354 454.704 936.693 457.2 936.693 460.528V463.088C936.693 466.075 937.482 468.272 939.061 469.68C940.639 471.088 943.05 471.792 946.293 471.792C948.127 471.792 950.069 471.621 952.117 471.28C954.165 470.939 955.978 470.469 957.557 469.872L958.581 476.592C957.002 477.232 955.146 477.723 953.013 478.064C950.922 478.448 948.81 478.64 946.677 478.64Z" fill="#FFBF00"/>
</g>
<defs>
<linearGradient id="paint0_linear_24_2" x1="87.3961" y1="4.33539e-05" x2="812.586" y2="934.805" gradientUnits="userSpaceOnUse">
<stop stop-color="#FFECB3"/>
<stop offset="0.177734" stop-color="#FFFEFA"/>
<stop offset="0.865098" stop-color="white"/>
<stop offset="1" stop-color="#FFECB3"/>
</linearGradient>
<clipPath id="clip0_24_2">
<rect width="1280" height="640" fill="white"/>
</clipPath>
</defs>
</svg>
