<svg enable-background="new 0 0 46 32" viewBox="0 0 46 32" xmlns="http://www.w3.org/2000/svg"><path d="m46 10.4c-2.9-1.9-6.5-2.5-9.9-1.7 0-.2 0-.5 0-.7 0-3.6-2.9-6.5-6.5-6.5-1.2 0-2.3.3-3.3.9-3.8-3.4-9.5-3.1-12.9.7-.9 1-1.5 2.1-1.9 3.4-4.5-1.6-9.4.7-10.9 5.1-1.5 4.2.5 8.8 4.6 10.6 0 5.4 4.4 9.8 9.8 9.8 2.5 0 5-1 6.8-2.7 3.1 1.8 7.1.8 8.9-2.4.1-.2.2-.4.3-.6 5.2-1.6 8-7.1 6.4-12.3 0-.1-.1-.3-.1-.4 2.3-1.8 4.8-2.7 8.7-3.2z" fill="#fccf00"/><g fill="#231200"><path d="m6.4 14.9c.1-.2.2-.4.3-.5l.9-1.3h1.6l-1.5 1.7 1.7 2.5h-1.6l-1-1.8-.3.4v1.3h-1.4v-6.2h1.3z"/><path d="m11.3 11.9c0 .4-.3.7-.7.7s-.7-.3-.7-.7.3-.7.7-.7h.1c.3.1.6.3.6.7zm-1.4 5.5v-4.3h1.3v4.3z"/><path d="m12.3 14.5c0-.5 0-1 0-1.4h1.2l.1.6c.3-.4.8-.7 1.3-.7.9 0 1.5.6 1.5 1.8v2.5h-1.4v-2.4c0-.5-.2-.9-.7-.9-.3 0-.6.2-.7.5v.3 2.5h-1.4z"/><path d="m18.8 12v1.1h.9v1h-1v1.5c0 .5.1.8.5.8h.4v1c-.3.1-.6.1-.9.1-.4 0-.8-.1-1-.4-.3-.4-.4-.8-.4-1.3v-1.7h-.6v-1h.6v-.8z"/><path d="m24.7 15.2c.1 1.2-.7 2.2-1.9 2.3-.1 0-.2 0-.3 0-1.2.1-2.1-.8-2.2-2 0-.1 0-.1 0-.2-.1-1.2.7-2.2 1.9-2.3h.4c1.2 0 2.1.9 2.2 2-.1.1-.1.1-.1.2zm-3.1 0c0 .7.3 1.3.9 1.3s.8-.5.8-1.3-.2-1.2-.8-1.2-.9.6-.9 1.2z"/><path d="m25.5 14.5c0-.5 0-1 0-1.4h1.2l.1.6c.3-.4.8-.7 1.3-.7.9 0 1.5.6 1.5 1.8v2.5h-1.3v-2.4c0-.5-.2-.9-.7-.9-.3 0-.6.2-.7.5v.3 2.5h-1.4z"/><path d="m31.7 15.7c0 .5.6.8 1.2.8.4 0 .8-.1 1.2-.2l.2.9c-.5.2-1 .3-1.5.3-1.2.1-2.2-.7-2.3-1.9 0-.1 0-.2 0-.3-.1-1.2.8-2.2 1.9-2.3h.2c1 0 1.9.8 1.9 1.9v.2.5zm1.5-.9c.1-.4-.2-.8-.7-.9h-.1c-.5 0-.8.4-.8.9z"/></g></svg>